<?xml version="1.0" encoding="utf-8"?>
<!-- Generator: Adobe Illustrator 25.3.1, SVG Export Plug-In . SVG Version: 6.00 Build 0)  -->
<svg version="1.1" id="Capa_1" xmlns="http://www.w3.org/2000/svg" xmlns:xlink="http://www.w3.org/1999/xlink" x="0px" y="0px"
	 viewBox="0 0 469.8 469.8" style="enable-background:new 0 0 469.8 469.8;" xml:space="preserve">
<style type="text/css">
	.st0{fill:#009A00;}
	.st1{fill:#FFC000;}
	.st2{fill:#B40000;}
	.st3{fill:#0064FF;}
</style>
<path class="st0" d="M215.8,229.6c0-6.4,2.5-12.4,7-16.9l26.5-26.5c0.3-8,3.5-15.4,9.1-20.9l3-3c-8.3-3-17.2-4.9-26.5-4.9
	c-42.9,0-77.6,34.8-77.6,77.6s34.8,77.6,77.6,77.6c42.9,0,77.6-34.8,77.6-77.6c0-10-2.1-19.5-5.5-28.2l-3.6,3.6
	c-5.3,5.3-12.3,8.4-19.7,9l-27.2,27.2c-4.5,4.5-10.5,7-16.9,7c-6.4,0-12.4-2.5-16.9-7C218.3,242,215.8,236,215.8,229.6z"/>
<path class="st1" d="M318,105.6C294,90.1,265.5,81,234.9,81C150.1,81,81,150.1,81,234.9s69,153.9,153.9,153.9
	c84.9,0,153.9-69,153.9-153.9c0-31.2-9.4-60.3-25.4-84.5l-23.1,23.1c10.6,18.1,16.7,39,16.7,61.4c0,67.3-54.7,122-122,122
	s-122-54.7-122-122s54.7-122,122-122c21.8,0,42.2,5.8,60,15.9L318,105.6z"/>
<path class="st2" d="M409.2,129.8l-1.1-0.4c18.8,30.8,29.9,66.8,29.9,105.4c0,112-91.1,203.1-203.1,203.1
	c-112,0-203.1-91.1-203.1-203.1S122.9,31.9,234.9,31.9c38.3,0,74.1,10.9,104.7,29.4l-0.5-1.6c-0.8-2.5-1.3-5-1.3-7.6
	c0-6.4,2.5-12.4,7-16.9l5-5C315.8,11.1,276.6,0,234.9,0C105.4,0,0,105.4,0,234.9s105.4,234.9,234.9,234.9
	c129.5,0,234.9-105.4,234.9-234.9c0-42.2-11.3-81.7-30.9-116l-5.2,5.2C427.3,130.6,417.9,132.8,409.2,129.8z"/>
<path class="st3" d="M356.1,46.4c-1.5,1.5-2.3,3.6-2.3,5.6c0,0.9,0.1,1.7,0.4,2.5l9.4,27.9l-94,94c-3,3-4.5,7-4.5,11
	c0,1.6,0.2,3.2,0.7,4.7L234,224c-1.6,1.6-2.3,3.6-2.3,5.6s0.8,4.1,2.3,5.6c3.1,3.1,8.2,3.1,11.3,0l32.2-32.2c5.1,1.1,10.7,0,14.7-4
	l93.9-93.9l28.3,9.6c2.9,1,6,0.2,8.2-1.9l37-37c1.5-1.5,2.3-3.5,2.3-5.6c0-0.6-0.1-1.2-0.2-1.8c-0.6-2.7-2.6-4.8-5.2-5.7L418.9,50
	l-12.7-37.5c-0.9-2.6-3-4.6-5.7-5.2c-2.7-0.6-5.5,0.2-7.4,2.1L356.1,46.4z"/>
</svg>
